<svg height="464pt" viewBox="0 -56 464 464" width="464pt" xmlns="http://www.w3.org/2000/svg"><path d="m176 320.96875h-176v32h464v-32zm0 0" fill="#57565c"/><path d="m432 288.96875h-256v32h256zm0 0" fill="#acabb1"/><path d="m225.535156 90.503906c9.371094-9.371094 9.371094-24.5625 0-33.9375l-33.933594 33.9375c9.371094 9.371094 24.5625 9.371094 33.933594 0zm0 0" fill="#ffde55"/><path d="m208.566406 5.65625-16.964844 16.96875-16.976562 16.96875-33.9375 33.941406 33.9375 33.945313 16.976562-16.976563 33.933594-33.9375 16.976563-16.972656zm0 0" fill="#ffb655"/><path d="m120 288.96875h-112v32h112zm0 0" fill="#acabb1"/><path d="m8 304.96875h112v16h-112zm0 0" fill="#898890"/><path d="m176 304.96875h256v16h-256zm0 0" fill="#898890"/><path d="m48 288.96875h-16v-192c0-2.121094.84375-4.15625 2.34375-5.65625l80-80c1.5-1.5 3.535156-2.34375 5.65625-2.34375h48v16h-44.6875l-75.3125 75.3125zm0 0" fill="#57565c"/><g fill="#ffa733"><path d="m236.851562 113.136719 11.316407-11.3125 22.625 22.625-11.3125 11.316406zm0 0"/><path d="m256 64.96875h32v16h-32zm0 0"/><path d="m200 120.96875h16v32h-16zm0 0"/><path d="m168.96875 0-33.9375 33.9375 22.625 22.628906 16.96875-16.972656 16.976562-16.96875zm0 0"/></g><path d="m336 248.96875c-12.640625.035156-24.511719 6.0625-32 16.246094-7.488281-10.183594-19.359375-16.210938-32-16.246094h-96v16h96c13.253906 0 24 10.746094 24 24h16c0-13.253906 10.746094-24 24-24h96v-16zm0 0" fill="#d1d3d4"/></svg>